# xmcd
#
# Track frame offsets:
#	150
#	16775
#	33923
#	54698
#	71838
#	89243
#	104688
#	118483
#
# Disc length: 1824 seconds
#
# Revision: 1
# Processed by: cddbd v1.5.1PL0 Copyright (c) Steve Scherf et al.
# Submitted via: CDex 1.50Beta5
#
DISCID=76071e08
DTITLE=岩崎良美 - cruise
DYEAR=1900
DGENRE=Pop
TTITLE0=ティーンネイジ・サマーハウス
TTITLE1=哀愁クルーズ
TTITLE2=チークタイムの涙
TTITLE3=ビキニな夏がやってくる
TTITLE4=Let It Green
TTITLE5=チェッ!チェッ!チェッ!
TTITLE6=夕陽にラストボール
TTITLE7=約束
EXTD=
EXTT0=
EXTT1=
EXTT2=
EXTT3=
EXTT4=
EXTT5=
EXTT6=
EXTT7=
PLAYORDER=
